<mxfile host="65bd71144e">
    <diagram id="qeZrQxY5c_ktSTjOSpfb" name="Page-1">
        <mxGraphModel dx="1204" dy="530" grid="1" gridSize="10" guides="1" tooltips="1" connect="1" arrows="1" fold="1" page="1" pageScale="1" pageWidth="850" pageHeight="1100" math="0" shadow="0">
            <root>
                <mxCell id="0"/>
                <mxCell id="1" parent="0"/>
                <mxCell id="2" value="Logo" style="rounded=0;whiteSpace=wrap;html=1;" vertex="1" parent="1">
                    <mxGeometry x="40" y="20" width="120" height="60" as="geometry"/>
                </mxCell>
                <mxCell id="16" value="Layer 1" style="strokeWidth=1;shadow=0;dashed=0;align=center;html=1;shape=mxgraph.mockup.navigation.anchor;fontSize=17;fontStyle=1;fillColor=#4D4D4D;gradientColor=none;" vertex="1" parent="1">
                    <mxGeometry x="40" y="120" width="60" height="30" as="geometry"/>
                </mxCell>
                <mxCell id="17" value="&amp;gt;" style="strokeWidth=1;shadow=0;dashed=0;align=center;html=1;shape=mxgraph.mockup.navigation.anchor;fontSize=24;fontStyle=1;fillColor=#4D4D4D;gradientColor=none;" vertex="1" parent="1">
                    <mxGeometry x="100" y="120" width="20" height="30" as="geometry"/>
                </mxCell>
                <mxCell id="18" value="Layer 2" style="strokeWidth=1;shadow=0;dashed=0;align=center;html=1;shape=mxgraph.mockup.navigation.anchor;fontSize=17;fontStyle=1;fillColor=#4D4D4D;gradientColor=none;" vertex="1" parent="1">
                    <mxGeometry x="120" y="120" width="60" height="30" as="geometry"/>
                </mxCell>
                <mxCell id="19" value="&amp;gt;" style="strokeWidth=1;shadow=0;dashed=0;align=center;html=1;shape=mxgraph.mockup.navigation.anchor;fontSize=24;fontStyle=1;fillColor=#4D4D4D;gradientColor=none;" vertex="1" parent="1">
                    <mxGeometry x="180" y="120" width="20" height="30" as="geometry"/>
                </mxCell>
                <mxCell id="20" value="Layer 3" style="strokeWidth=1;shadow=0;dashed=0;align=center;html=1;shape=mxgraph.mockup.navigation.anchor;fontSize=17;fontStyle=1;fillColor=#4D4D4D;gradientColor=none;" vertex="1" parent="1">
                    <mxGeometry x="200" y="120" width="60" height="30" as="geometry"/>
                </mxCell>
                <mxCell id="21" value="&amp;gt;" style="strokeWidth=1;shadow=0;dashed=0;align=center;html=1;shape=mxgraph.mockup.navigation.anchor;fontSize=24;fontStyle=1;fillColor=#4D4D4D;gradientColor=none;" vertex="1" parent="1">
                    <mxGeometry x="260" y="120" width="20" height="30" as="geometry"/>
                </mxCell>
                <mxCell id="22" value="Layer 4" style="strokeWidth=1;shadow=0;dashed=0;align=center;html=1;shape=mxgraph.mockup.navigation.anchor;fontSize=17;fontStyle=1;fillColor=#4D4D4D;gradientColor=none;" vertex="1" parent="1">
                    <mxGeometry x="280" y="120" width="60" height="30" as="geometry"/>
                </mxCell>
                <mxCell id="23" value="Thông tin nhân viên 1" style="rounded=1;whiteSpace=wrap;html=1;fontSize=14;fontColor=#FFFFFF;strokeColor=#666666;fillColor=#4D4D4D;gradientColor=none;" vertex="1" parent="1">
                    <mxGeometry x="40" y="190" width="110" height="150" as="geometry"/>
                </mxCell>
                <mxCell id="24" value="Thông tin nhân viên 2" style="rounded=1;whiteSpace=wrap;html=1;fontSize=14;fontColor=#FFFFFF;strokeColor=#666666;fillColor=#4D4D4D;gradientColor=none;" vertex="1" parent="1">
                    <mxGeometry x="175" y="190" width="110" height="150" as="geometry"/>
                </mxCell>
                <mxCell id="25" value="Thông tin nhân viên 3" style="rounded=1;whiteSpace=wrap;html=1;fontSize=14;fontColor=#FFFFFF;strokeColor=#666666;fillColor=#4D4D4D;gradientColor=none;" vertex="1" parent="1">
                    <mxGeometry x="310" y="190" width="110" height="150" as="geometry"/>
                </mxCell>
                <mxCell id="26" value="Thông tin nhân viên 4" style="rounded=1;whiteSpace=wrap;html=1;fontSize=14;fontColor=#FFFFFF;strokeColor=#666666;fillColor=#4D4D4D;gradientColor=none;" vertex="1" parent="1">
                    <mxGeometry x="446" y="190" width="110" height="150" as="geometry"/>
                </mxCell>
                <mxCell id="27" value="Thông tin nhân viên 5" style="rounded=1;whiteSpace=wrap;html=1;fontSize=14;fontColor=#FFFFFF;strokeColor=#666666;fillColor=#4D4D4D;gradientColor=none;" vertex="1" parent="1">
                    <mxGeometry x="583" y="190" width="110" height="150" as="geometry"/>
                </mxCell>
                <mxCell id="28" value="Thông tin nhân viên 6" style="rounded=1;whiteSpace=wrap;html=1;fontSize=14;fontColor=#FFFFFF;strokeColor=#666666;fillColor=#4D4D4D;gradientColor=none;" vertex="1" parent="1">
                    <mxGeometry x="718" y="190" width="110" height="150" as="geometry"/>
                </mxCell>
                <mxCell id="29" value="Thông tin nhân viên 7" style="rounded=1;whiteSpace=wrap;html=1;fontSize=14;fontColor=#FFFFFF;strokeColor=#666666;fillColor=#4D4D4D;gradientColor=none;" vertex="1" parent="1">
                    <mxGeometry x="40" y="370" width="110" height="140" as="geometry"/>
                </mxCell>
                <mxCell id="30" value="Thông tin nhân viên 8" style="rounded=1;whiteSpace=wrap;html=1;fontSize=14;fontColor=#FFFFFF;strokeColor=#666666;fillColor=#4D4D4D;gradientColor=none;" vertex="1" parent="1">
                    <mxGeometry x="175" y="370" width="110" height="140" as="geometry"/>
                </mxCell>
                <mxCell id="31" value="Thông tin nhân viên 9" style="rounded=1;whiteSpace=wrap;html=1;fontSize=14;fontColor=#FFFFFF;strokeColor=#666666;fillColor=#4D4D4D;gradientColor=none;" vertex="1" parent="1">
                    <mxGeometry x="310" y="370" width="110" height="140" as="geometry"/>
                </mxCell>
                <mxCell id="32" value="Thông tin nhân viên 10" style="rounded=1;whiteSpace=wrap;html=1;fontSize=14;fontColor=#FFFFFF;strokeColor=#666666;fillColor=#4D4D4D;gradientColor=none;" vertex="1" parent="1">
                    <mxGeometry x="446" y="370" width="110" height="140" as="geometry"/>
                </mxCell>
                <mxCell id="33" value="Thông tin nhân viên 11" style="rounded=1;whiteSpace=wrap;html=1;fontSize=14;fontColor=#FFFFFF;strokeColor=#666666;fillColor=#4D4D4D;gradientColor=none;" vertex="1" parent="1">
                    <mxGeometry x="583" y="370" width="110" height="140" as="geometry"/>
                </mxCell>
                <mxCell id="34" value="Thông tin nhân viên 12" style="rounded=1;whiteSpace=wrap;html=1;fontSize=14;fontColor=#FFFFFF;strokeColor=#666666;fillColor=#4D4D4D;gradientColor=none;" vertex="1" parent="1">
                    <mxGeometry x="718" y="370" width="110" height="140" as="geometry"/>
                </mxCell>
                <mxCell id="35" value="Thông tin nhân viên 13" style="rounded=1;whiteSpace=wrap;html=1;fontSize=14;fontColor=#FFFFFF;strokeColor=#666666;fillColor=#4D4D4D;gradientColor=none;" vertex="1" parent="1">
                    <mxGeometry x="40" y="540" width="110" height="130" as="geometry"/>
                </mxCell>
                <mxCell id="36" value="Thông tin nhân viên 14" style="rounded=1;whiteSpace=wrap;html=1;fontSize=14;fontColor=#FFFFFF;strokeColor=#666666;fillColor=#4D4D4D;gradientColor=none;" vertex="1" parent="1">
                    <mxGeometry x="175" y="540" width="110" height="130" as="geometry"/>
                </mxCell>
                <mxCell id="37" value="Thông tin nhân viên 15" style="rounded=1;whiteSpace=wrap;html=1;fontSize=14;fontColor=#FFFFFF;strokeColor=#666666;fillColor=#4D4D4D;gradientColor=none;" vertex="1" parent="1">
                    <mxGeometry x="310" y="540" width="110" height="130" as="geometry"/>
                </mxCell>
                <mxCell id="41" value="" style="strokeWidth=1;shadow=0;dashed=0;align=center;html=1;shape=mxgraph.mockup.forms.rrect;rSize=0;strokeColor=#999999;fontSize=14;fontColor=#FFFFFF;fillColor=#4D4D4D;gradientColor=none;" vertex="1" parent="1">
                    <mxGeometry x="170" y="30" width="370" height="30" as="geometry"/>
                </mxCell>
                <mxCell id="42" value="Nhân Viên" style="strokeColor=inherit;fillColor=inherit;gradientColor=inherit;strokeWidth=1;shadow=0;dashed=0;align=center;html=1;shape=mxgraph.mockup.forms.rrect;rSize=0;fontSize=17;fontColor=#FFFFFF;" vertex="1" parent="41">
                    <mxGeometry width="120" height="30" as="geometry"/>
                </mxCell>
                <mxCell id="43" value="Phòng Ban" style="strokeColor=inherit;fillColor=inherit;gradientColor=inherit;strokeWidth=1;shadow=0;dashed=0;align=center;html=1;shape=mxgraph.mockup.forms.rrect;rSize=0;fontSize=17;fontColor=#FFFFFF;" vertex="1" parent="41">
                    <mxGeometry x="120" width="130" height="30" as="geometry"/>
                </mxCell>
                <mxCell id="44" value="Bảng Lương" style="strokeColor=inherit;fillColor=inherit;gradientColor=inherit;strokeWidth=1;shadow=0;dashed=0;align=center;html=1;shape=mxgraph.mockup.forms.rrect;rSize=0;fontSize=17;fontColor=#FFFFFF;" vertex="1" parent="41">
                    <mxGeometry x="250" width="120" height="30" as="geometry"/>
                </mxCell>
                <mxCell id="48" value="" style="strokeWidth=1;shadow=0;dashed=0;align=center;html=1;shape=mxgraph.mockup.forms.rrect;rSize=0;strokeColor=#999999;fillColor=#999999;fontSize=14;fontColor=#FFFFFF;" vertex="1" parent="1">
                    <mxGeometry x="50" y="720" width="150" height="150" as="geometry"/>
                </mxCell>
                <mxCell id="49" value="Our Address" style="strokeWidth=1;shadow=0;dashed=0;align=center;html=1;shape=mxgraph.mockup.forms.rrect;rSize=0;strokeColor=#999999;fontColor=#FFFFFF;fontSize=17;fillColor=#999999;resizeWidth=1;" vertex="1" parent="48">
                    <mxGeometry width="150" height="30" relative="1" as="geometry"/>
                </mxCell>
                <mxCell id="50" value="Địa chỉ" style="strokeWidth=1;shadow=0;dashed=0;align=center;html=1;shape=mxgraph.mockup.forms.anchor;fontSize=17;fontColor=#FFFFFF;align=left;spacingLeft=5;resizeWidth=1;fillColor=#4D4D4D;gradientColor=none;" vertex="1" parent="48">
                    <mxGeometry width="150" height="30" relative="1" as="geometry">
                        <mxPoint y="30" as="offset"/>
                    </mxGeometry>
                </mxCell>
                <mxCell id="51" value="Số điện thoại" style="strokeWidth=1;shadow=0;dashed=0;align=center;html=1;shape=mxgraph.mockup.forms.anchor;fontSize=17;fontColor=#FFFFFF;align=left;spacingLeft=5;resizeWidth=1;fillColor=#4D4D4D;gradientColor=none;" vertex="1" parent="48">
                    <mxGeometry width="150" height="30" relative="1" as="geometry">
                        <mxPoint y="60" as="offset"/>
                    </mxGeometry>
                </mxCell>
                <mxCell id="52" value="Số Fax" style="strokeWidth=1;shadow=0;dashed=0;align=center;html=1;shape=mxgraph.mockup.forms.rrect;rSize=0;fontSize=17;fontColor=#FFFFFF;align=left;spacingLeft=5;fillColor=#999999;strokeColor=none;resizeWidth=1;" vertex="1" parent="48">
                    <mxGeometry width="150" height="30" relative="1" as="geometry">
                        <mxPoint y="90" as="offset"/>
                    </mxGeometry>
                </mxCell>
                <mxCell id="53" value="Email" style="strokeWidth=1;shadow=0;dashed=0;align=center;html=1;shape=mxgraph.mockup.forms.anchor;fontSize=17;fontColor=#007FFF;align=left;spacingLeft=5;resizeWidth=1;fillColor=#4D4D4D;gradientColor=none;" vertex="1" parent="48">
                    <mxGeometry width="150" height="30" relative="1" as="geometry">
                        <mxPoint y="120" as="offset"/>
                    </mxGeometry>
                </mxCell>
                <mxCell id="74" value="" style="strokeWidth=1;shadow=0;dashed=0;align=center;html=1;shape=mxgraph.mockup.forms.rrect;rSize=0;strokeColor=#999999;fontSize=14;fontColor=#FFFFFF;fillColor=#4D4D4D;gradientColor=none;" vertex="1" parent="1">
                    <mxGeometry x="340" y="770" width="498" height="30" as="geometry"/>
                </mxCell>
                <mxCell id="75" value="Gmail" style="strokeColor=inherit;fillColor=inherit;gradientColor=inherit;strokeWidth=1;shadow=0;dashed=0;align=center;html=1;shape=mxgraph.mockup.forms.rrect;rSize=0;fontSize=17;fontColor=#FFFFFF;" vertex="1" parent="74">
                    <mxGeometry width="83" height="30" as="geometry"/>
                </mxCell>
                <mxCell id="76" value="Facebook" style="strokeColor=inherit;fillColor=inherit;gradientColor=inherit;strokeWidth=1;shadow=0;dashed=0;align=center;html=1;shape=mxgraph.mockup.forms.rrect;rSize=0;fontSize=17;fontColor=#FFFFFF;" vertex="1" parent="74">
                    <mxGeometry x="83" width="83" height="30" as="geometry"/>
                </mxCell>
                <mxCell id="77" value="Linkedin" style="strokeColor=inherit;fillColor=inherit;gradientColor=inherit;strokeWidth=1;shadow=0;dashed=0;align=center;html=1;shape=mxgraph.mockup.forms.rrect;rSize=0;fontSize=17;fontColor=#FFFFFF;" vertex="1" parent="74">
                    <mxGeometry x="166" width="83" height="30" as="geometry"/>
                </mxCell>
                <mxCell id="78" value="Twitter" style="strokeColor=inherit;fillColor=inherit;gradientColor=inherit;strokeWidth=1;shadow=0;dashed=0;align=center;html=1;shape=mxgraph.mockup.forms.rrect;rSize=0;fontSize=17;fontColor=#FFFFFF;" vertex="1" parent="74">
                    <mxGeometry x="249" width="83" height="30" as="geometry"/>
                </mxCell>
                <mxCell id="79" value="Youtube" style="strokeColor=inherit;fillColor=inherit;gradientColor=inherit;strokeWidth=1;shadow=0;dashed=0;align=center;html=1;shape=mxgraph.mockup.forms.rrect;rSize=0;fontSize=17;fontColor=#FFFFFF;" vertex="1" parent="74">
                    <mxGeometry x="332" width="83" height="30" as="geometry"/>
                </mxCell>
                <mxCell id="80" value="Email" style="strokeColor=inherit;fillColor=inherit;gradientColor=inherit;strokeWidth=1;shadow=0;dashed=0;align=center;html=1;shape=mxgraph.mockup.forms.rrect;rSize=0;fontSize=17;fontColor=#FFFFFF;" vertex="1" parent="74">
                    <mxGeometry x="415" width="83" height="30" as="geometry"/>
                </mxCell>
                <mxCell id="81" value="@Copyright" style="strokeWidth=1;shadow=0;dashed=0;align=center;html=1;shape=mxgraph.mockup.text.textBox;fontColor=#FFFFFF;align=left;fontSize=17;spacingLeft=4;spacingTop=-3;strokeColor=#666666;mainText=;fillColor=#4D4D4D;gradientColor=none;" vertex="1" parent="1">
                    <mxGeometry x="220" y="930" width="350" height="30" as="geometry"/>
                </mxCell>
            </root>
        </mxGraphModel>
    </diagram>
    <diagram id="eESu4sfSq8_uXeteRvc1" name="Page-2">
        <mxGraphModel dx="1204" dy="530" grid="1" gridSize="10" guides="1" tooltips="1" connect="1" arrows="1" fold="1" page="1" pageScale="1" pageWidth="850" pageHeight="1100" math="0" shadow="0">
            <root>
                <mxCell id="asQPbBjXSRSvX9VENART-0"/>
                <mxCell id="asQPbBjXSRSvX9VENART-1" parent="asQPbBjXSRSvX9VENART-0"/>
                <mxCell id="695a16o0TcfcxM_bDGUs-0" value="Logo" style="rounded=0;whiteSpace=wrap;html=1;" vertex="1" parent="asQPbBjXSRSvX9VENART-1">
                    <mxGeometry x="40" y="20" width="120" height="60" as="geometry"/>
                </mxCell>
                <mxCell id="695a16o0TcfcxM_bDGUs-1" value="Layer 1" style="strokeWidth=1;shadow=0;dashed=0;align=center;html=1;shape=mxgraph.mockup.navigation.anchor;fontSize=17;fontStyle=1;fillColor=#4D4D4D;gradientColor=none;" vertex="1" parent="asQPbBjXSRSvX9VENART-1">
                    <mxGeometry x="40" y="120" width="60" height="30" as="geometry"/>
                </mxCell>
                <mxCell id="695a16o0TcfcxM_bDGUs-2" value="&amp;gt;" style="strokeWidth=1;shadow=0;dashed=0;align=center;html=1;shape=mxgraph.mockup.navigation.anchor;fontSize=24;fontStyle=1;fillColor=#4D4D4D;gradientColor=none;" vertex="1" parent="asQPbBjXSRSvX9VENART-1">
                    <mxGeometry x="100" y="120" width="20" height="30" as="geometry"/>
                </mxCell>
                <mxCell id="695a16o0TcfcxM_bDGUs-3" value="Layer 2" style="strokeWidth=1;shadow=0;dashed=0;align=center;html=1;shape=mxgraph.mockup.navigation.anchor;fontSize=17;fontStyle=1;fillColor=#4D4D4D;gradientColor=none;" vertex="1" parent="asQPbBjXSRSvX9VENART-1">
                    <mxGeometry x="120" y="120" width="60" height="30" as="geometry"/>
                </mxCell>
                <mxCell id="695a16o0TcfcxM_bDGUs-4" value="&amp;gt;" style="strokeWidth=1;shadow=0;dashed=0;align=center;html=1;shape=mxgraph.mockup.navigation.anchor;fontSize=24;fontStyle=1;fillColor=#4D4D4D;gradientColor=none;" vertex="1" parent="asQPbBjXSRSvX9VENART-1">
                    <mxGeometry x="180" y="120" width="20" height="30" as="geometry"/>
                </mxCell>
                <mxCell id="695a16o0TcfcxM_bDGUs-5" value="Layer 3" style="strokeWidth=1;shadow=0;dashed=0;align=center;html=1;shape=mxgraph.mockup.navigation.anchor;fontSize=17;fontStyle=1;fillColor=#4D4D4D;gradientColor=none;" vertex="1" parent="asQPbBjXSRSvX9VENART-1">
                    <mxGeometry x="200" y="120" width="60" height="30" as="geometry"/>
                </mxCell>
                <mxCell id="695a16o0TcfcxM_bDGUs-6" value="&amp;gt;" style="strokeWidth=1;shadow=0;dashed=0;align=center;html=1;shape=mxgraph.mockup.navigation.anchor;fontSize=24;fontStyle=1;fillColor=#4D4D4D;gradientColor=none;" vertex="1" parent="asQPbBjXSRSvX9VENART-1">
                    <mxGeometry x="260" y="120" width="20" height="30" as="geometry"/>
                </mxCell>
                <mxCell id="695a16o0TcfcxM_bDGUs-7" value="Layer 4" style="strokeWidth=1;shadow=0;dashed=0;align=center;html=1;shape=mxgraph.mockup.navigation.anchor;fontSize=17;fontStyle=1;fillColor=#4D4D4D;gradientColor=none;" vertex="1" parent="asQPbBjXSRSvX9VENART-1">
                    <mxGeometry x="280" y="120" width="60" height="30" as="geometry"/>
                </mxCell>
                <mxCell id="695a16o0TcfcxM_bDGUs-8" value="" style="strokeWidth=1;shadow=0;dashed=0;align=center;html=1;shape=mxgraph.mockup.forms.rrect;rSize=0;strokeColor=#999999;fontSize=14;fontColor=#FFFFFF;fillColor=#4D4D4D;gradientColor=none;" vertex="1" parent="asQPbBjXSRSvX9VENART-1">
                    <mxGeometry x="170" y="30" width="370" height="30" as="geometry"/>
                </mxCell>
                <mxCell id="695a16o0TcfcxM_bDGUs-9" value="Nhân Viên" style="strokeColor=inherit;fillColor=inherit;gradientColor=inherit;strokeWidth=1;shadow=0;dashed=0;align=center;html=1;shape=mxgraph.mockup.forms.rrect;rSize=0;fontSize=17;fontColor=#FFFFFF;" vertex="1" parent="695a16o0TcfcxM_bDGUs-8">
                    <mxGeometry width="120" height="30" as="geometry"/>
                </mxCell>
                <mxCell id="695a16o0TcfcxM_bDGUs-10" value="Phòng Ban" style="strokeColor=inherit;fillColor=inherit;gradientColor=inherit;strokeWidth=1;shadow=0;dashed=0;align=center;html=1;shape=mxgraph.mockup.forms.rrect;rSize=0;fontSize=17;fontColor=#FFFFFF;" vertex="1" parent="695a16o0TcfcxM_bDGUs-8">
                    <mxGeometry x="120" width="130" height="30" as="geometry"/>
                </mxCell>
                <mxCell id="695a16o0TcfcxM_bDGUs-11" value="Bảng Lương" style="strokeColor=inherit;fillColor=inherit;gradientColor=inherit;strokeWidth=1;shadow=0;dashed=0;align=center;html=1;shape=mxgraph.mockup.forms.rrect;rSize=0;fontSize=17;fontColor=#FFFFFF;" vertex="1" parent="695a16o0TcfcxM_bDGUs-8">
                    <mxGeometry x="250" width="120" height="30" as="geometry"/>
                </mxCell>
                <mxCell id="TaAWqK2E4Hmw_r0J_yId-0" value="" style="strokeWidth=1;shadow=0;dashed=0;align=center;html=1;shape=mxgraph.mockup.forms.rrect;rSize=0;strokeColor=#999999;fillColor=#999999;fontSize=14;fontColor=#FFFFFF;" vertex="1" parent="asQPbBjXSRSvX9VENART-1">
                    <mxGeometry x="50" y="500" width="150" height="150" as="geometry"/>
                </mxCell>
                <mxCell id="TaAWqK2E4Hmw_r0J_yId-1" value="Our Address" style="strokeWidth=1;shadow=0;dashed=0;align=center;html=1;shape=mxgraph.mockup.forms.rrect;rSize=0;strokeColor=#999999;fontColor=#FFFFFF;fontSize=17;fillColor=#999999;resizeWidth=1;" vertex="1" parent="TaAWqK2E4Hmw_r0J_yId-0">
                    <mxGeometry width="150" height="30" relative="1" as="geometry"/>
                </mxCell>
                <mxCell id="TaAWqK2E4Hmw_r0J_yId-2" value="Địa chỉ" style="strokeWidth=1;shadow=0;dashed=0;align=center;html=1;shape=mxgraph.mockup.forms.anchor;fontSize=17;fontColor=#FFFFFF;align=left;spacingLeft=5;resizeWidth=1;fillColor=#4D4D4D;gradientColor=none;" vertex="1" parent="TaAWqK2E4Hmw_r0J_yId-0">
                    <mxGeometry width="150" height="30" relative="1" as="geometry">
                        <mxPoint y="30" as="offset"/>
                    </mxGeometry>
                </mxCell>
                <mxCell id="TaAWqK2E4Hmw_r0J_yId-3" value="Số điện thoại" style="strokeWidth=1;shadow=0;dashed=0;align=center;html=1;shape=mxgraph.mockup.forms.anchor;fontSize=17;fontColor=#FFFFFF;align=left;spacingLeft=5;resizeWidth=1;fillColor=#4D4D4D;gradientColor=none;" vertex="1" parent="TaAWqK2E4Hmw_r0J_yId-0">
                    <mxGeometry width="150" height="30" relative="1" as="geometry">
                        <mxPoint y="60" as="offset"/>
                    </mxGeometry>
                </mxCell>
                <mxCell id="TaAWqK2E4Hmw_r0J_yId-4" value="Số Fax" style="strokeWidth=1;shadow=0;dashed=0;align=center;html=1;shape=mxgraph.mockup.forms.rrect;rSize=0;fontSize=17;fontColor=#FFFFFF;align=left;spacingLeft=5;fillColor=#999999;strokeColor=none;resizeWidth=1;" vertex="1" parent="TaAWqK2E4Hmw_r0J_yId-0">
                    <mxGeometry width="150" height="30" relative="1" as="geometry">
                        <mxPoint y="90" as="offset"/>
                    </mxGeometry>
                </mxCell>
                <mxCell id="TaAWqK2E4Hmw_r0J_yId-5" value="Email" style="strokeWidth=1;shadow=0;dashed=0;align=center;html=1;shape=mxgraph.mockup.forms.anchor;fontSize=17;fontColor=#007FFF;align=left;spacingLeft=5;resizeWidth=1;fillColor=#4D4D4D;gradientColor=none;" vertex="1" parent="TaAWqK2E4Hmw_r0J_yId-0">
                    <mxGeometry width="150" height="30" relative="1" as="geometry">
                        <mxPoint y="120" as="offset"/>
                    </mxGeometry>
                </mxCell>
                <mxCell id="TaAWqK2E4Hmw_r0J_yId-6" value="" style="strokeWidth=1;shadow=0;dashed=0;align=center;html=1;shape=mxgraph.mockup.forms.rrect;rSize=0;strokeColor=#999999;fontSize=14;fontColor=#FFFFFF;fillColor=#4D4D4D;gradientColor=none;" vertex="1" parent="asQPbBjXSRSvX9VENART-1">
                    <mxGeometry x="340" y="550" width="498" height="30" as="geometry"/>
                </mxCell>
                <mxCell id="TaAWqK2E4Hmw_r0J_yId-7" value="Gmail" style="strokeColor=inherit;fillColor=inherit;gradientColor=inherit;strokeWidth=1;shadow=0;dashed=0;align=center;html=1;shape=mxgraph.mockup.forms.rrect;rSize=0;fontSize=17;fontColor=#FFFFFF;" vertex="1" parent="TaAWqK2E4Hmw_r0J_yId-6">
                    <mxGeometry width="83" height="30" as="geometry"/>
                </mxCell>
                <mxCell id="TaAWqK2E4Hmw_r0J_yId-8" value="Facebook" style="strokeColor=inherit;fillColor=inherit;gradientColor=inherit;strokeWidth=1;shadow=0;dashed=0;align=center;html=1;shape=mxgraph.mockup.forms.rrect;rSize=0;fontSize=17;fontColor=#FFFFFF;" vertex="1" parent="TaAWqK2E4Hmw_r0J_yId-6">
                    <mxGeometry x="83" width="83" height="30" as="geometry"/>
                </mxCell>
                <mxCell id="TaAWqK2E4Hmw_r0J_yId-9" value="Linkedin" style="strokeColor=inherit;fillColor=inherit;gradientColor=inherit;strokeWidth=1;shadow=0;dashed=0;align=center;html=1;shape=mxgraph.mockup.forms.rrect;rSize=0;fontSize=17;fontColor=#FFFFFF;" vertex="1" parent="TaAWqK2E4Hmw_r0J_yId-6">
                    <mxGeometry x="166" width="83" height="30" as="geometry"/>
                </mxCell>
                <mxCell id="TaAWqK2E4Hmw_r0J_yId-10" value="Twitter" style="strokeColor=inherit;fillColor=inherit;gradientColor=inherit;strokeWidth=1;shadow=0;dashed=0;align=center;html=1;shape=mxgraph.mockup.forms.rrect;rSize=0;fontSize=17;fontColor=#FFFFFF;" vertex="1" parent="TaAWqK2E4Hmw_r0J_yId-6">
                    <mxGeometry x="249" width="83" height="30" as="geometry"/>
                </mxCell>
                <mxCell id="TaAWqK2E4Hmw_r0J_yId-11" value="Youtube" style="strokeColor=inherit;fillColor=inherit;gradientColor=inherit;strokeWidth=1;shadow=0;dashed=0;align=center;html=1;shape=mxgraph.mockup.forms.rrect;rSize=0;fontSize=17;fontColor=#FFFFFF;" vertex="1" parent="TaAWqK2E4Hmw_r0J_yId-6">
                    <mxGeometry x="332" width="83" height="30" as="geometry"/>
                </mxCell>
                <mxCell id="TaAWqK2E4Hmw_r0J_yId-12" value="Email" style="strokeColor=inherit;fillColor=inherit;gradientColor=inherit;strokeWidth=1;shadow=0;dashed=0;align=center;html=1;shape=mxgraph.mockup.forms.rrect;rSize=0;fontSize=17;fontColor=#FFFFFF;" vertex="1" parent="TaAWqK2E4Hmw_r0J_yId-6">
                    <mxGeometry x="415" width="83" height="30" as="geometry"/>
                </mxCell>
                <mxCell id="TaAWqK2E4Hmw_r0J_yId-13" value="@Copyright" style="strokeWidth=1;shadow=0;dashed=0;align=center;html=1;shape=mxgraph.mockup.text.textBox;fontColor=#FFFFFF;align=left;fontSize=17;spacingLeft=4;spacingTop=-3;strokeColor=#666666;mainText=;fillColor=#4D4D4D;gradientColor=none;" vertex="1" parent="asQPbBjXSRSvX9VENART-1">
                    <mxGeometry x="220" y="710" width="350" height="30" as="geometry"/>
                </mxCell>
                <mxCell id="TaAWqK2E4Hmw_r0J_yId-14" value="Phòng Ban 1" style="rounded=1;whiteSpace=wrap;html=1;fontSize=14;fontColor=#FFFFFF;strokeColor=#666666;fillColor=#999999;gradientColor=none;" vertex="1" parent="asQPbBjXSRSvX9VENART-1">
                    <mxGeometry x="40" y="180" width="230" height="110" as="geometry"/>
                </mxCell>
                <mxCell id="TaAWqK2E4Hmw_r0J_yId-15" value="Phòng Ban 2" style="rounded=1;whiteSpace=wrap;html=1;fontSize=14;fontColor=#FFFFFF;strokeColor=#666666;fillColor=#999999;gradientColor=none;" vertex="1" parent="asQPbBjXSRSvX9VENART-1">
                    <mxGeometry x="290" y="180" width="250" height="110" as="geometry"/>
                </mxCell>
                <mxCell id="TaAWqK2E4Hmw_r0J_yId-16" value="Phòng Ban 3" style="rounded=1;whiteSpace=wrap;html=1;fontSize=14;fontColor=#FFFFFF;strokeColor=#666666;fillColor=#999999;gradientColor=none;" vertex="1" parent="asQPbBjXSRSvX9VENART-1">
                    <mxGeometry x="560" y="180" width="250" height="110" as="geometry"/>
                </mxCell>
                <mxCell id="TaAWqK2E4Hmw_r0J_yId-17" value="Phòng Ban 4" style="rounded=1;whiteSpace=wrap;html=1;fontSize=14;fontColor=#FFFFFF;strokeColor=#666666;fillColor=#999999;gradientColor=none;" vertex="1" parent="asQPbBjXSRSvX9VENART-1">
                    <mxGeometry x="40" y="320" width="230" height="110" as="geometry"/>
                </mxCell>
                <mxCell id="TaAWqK2E4Hmw_r0J_yId-18" value="Phòng Ban 5" style="rounded=1;whiteSpace=wrap;html=1;fontSize=14;fontColor=#FFFFFF;strokeColor=#666666;fillColor=#999999;gradientColor=none;" vertex="1" parent="asQPbBjXSRSvX9VENART-1">
                    <mxGeometry x="290" y="320" width="250" height="110" as="geometry"/>
                </mxCell>
            </root>
        </mxGraphModel>
    </diagram>
    <diagram id="KmhIk1veDQufgKb4oCA-" name="Page-3">
        <mxGraphModel dx="1204" dy="530" grid="1" gridSize="10" guides="1" tooltips="1" connect="1" arrows="1" fold="1" page="1" pageScale="1" pageWidth="850" pageHeight="1100" math="0" shadow="0">
            <root>
                <mxCell id="gWS6S3b0IVamxqoIi2r7-0"/>
                <mxCell id="gWS6S3b0IVamxqoIi2r7-1" parent="gWS6S3b0IVamxqoIi2r7-0"/>
                <mxCell id="TwwIinutiO0uDywIFcbO-0" value="Địa chỉ" style="strokeWidth=1;shadow=0;dashed=0;align=center;html=1;shape=mxgraph.mockup.forms.anchor;fontSize=17;fontColor=#FFFFFF;align=left;spacingLeft=5;resizeWidth=1;fillColor=#4D4D4D;gradientColor=none;" vertex="1" parent="gWS6S3b0IVamxqoIi2r7-1">
                    <mxGeometry x="40" y="910" width="150" height="30" as="geometry"/>
                </mxCell>
                <mxCell id="TwwIinutiO0uDywIFcbO-1" value="Số điện thoại" style="strokeWidth=1;shadow=0;dashed=0;align=center;html=1;shape=mxgraph.mockup.forms.anchor;fontSize=17;fontColor=#FFFFFF;align=left;spacingLeft=5;resizeWidth=1;fillColor=#4D4D4D;gradientColor=none;" vertex="1" parent="gWS6S3b0IVamxqoIi2r7-1">
                    <mxGeometry x="40" y="940" width="150" height="30" as="geometry"/>
                </mxCell>
                <mxCell id="TwwIinutiO0uDywIFcbO-2" value="Số Fax" style="strokeWidth=1;shadow=0;dashed=0;align=center;html=1;shape=mxgraph.mockup.forms.rrect;rSize=0;fontSize=17;fontColor=#FFFFFF;align=left;spacingLeft=5;fillColor=#999999;strokeColor=none;resizeWidth=1;" vertex="1" parent="gWS6S3b0IVamxqoIi2r7-1">
                    <mxGeometry x="40" y="970" width="150" height="30" as="geometry"/>
                </mxCell>
                <mxCell id="TwwIinutiO0uDywIFcbO-3" value="Email" style="strokeWidth=1;shadow=0;dashed=0;align=center;html=1;shape=mxgraph.mockup.forms.anchor;fontSize=17;fontColor=#007FFF;align=left;spacingLeft=5;resizeWidth=1;fillColor=#4D4D4D;gradientColor=none;" vertex="1" parent="gWS6S3b0IVamxqoIi2r7-1">
                    <mxGeometry x="40" y="1000" width="150" height="30" as="geometry"/>
                </mxCell>
                <mxCell id="TwwIinutiO0uDywIFcbO-4" value="" style="strokeWidth=1;shadow=0;dashed=0;align=center;html=1;shape=mxgraph.mockup.forms.rrect;rSize=0;strokeColor=#999999;fontSize=14;fontColor=#FFFFFF;fillColor=#4D4D4D;gradientColor=none;" vertex="1" parent="gWS6S3b0IVamxqoIi2r7-1">
                    <mxGeometry x="330" y="930" width="498" height="30" as="geometry"/>
                </mxCell>
                <mxCell id="TwwIinutiO0uDywIFcbO-5" value="Gmail" style="strokeColor=inherit;fillColor=inherit;gradientColor=inherit;strokeWidth=1;shadow=0;dashed=0;align=center;html=1;shape=mxgraph.mockup.forms.rrect;rSize=0;fontSize=17;fontColor=#FFFFFF;" vertex="1" parent="TwwIinutiO0uDywIFcbO-4">
                    <mxGeometry width="83" height="30" as="geometry"/>
                </mxCell>
                <mxCell id="TwwIinutiO0uDywIFcbO-6" value="Facebook" style="strokeColor=inherit;fillColor=inherit;gradientColor=inherit;strokeWidth=1;shadow=0;dashed=0;align=center;html=1;shape=mxgraph.mockup.forms.rrect;rSize=0;fontSize=17;fontColor=#FFFFFF;" vertex="1" parent="TwwIinutiO0uDywIFcbO-4">
                    <mxGeometry x="83" width="83" height="30" as="geometry"/>
                </mxCell>
                <mxCell id="TwwIinutiO0uDywIFcbO-7" value="Linkedin" style="strokeColor=inherit;fillColor=inherit;gradientColor=inherit;strokeWidth=1;shadow=0;dashed=0;align=center;html=1;shape=mxgraph.mockup.forms.rrect;rSize=0;fontSize=17;fontColor=#FFFFFF;" vertex="1" parent="TwwIinutiO0uDywIFcbO-4">
                    <mxGeometry x="166" width="83" height="30" as="geometry"/>
                </mxCell>
                <mxCell id="TwwIinutiO0uDywIFcbO-8" value="Twitter" style="strokeColor=inherit;fillColor=inherit;gradientColor=inherit;strokeWidth=1;shadow=0;dashed=0;align=center;html=1;shape=mxgraph.mockup.forms.rrect;rSize=0;fontSize=17;fontColor=#FFFFFF;" vertex="1" parent="TwwIinutiO0uDywIFcbO-4">
                    <mxGeometry x="249" width="83" height="30" as="geometry"/>
                </mxCell>
                <mxCell id="TwwIinutiO0uDywIFcbO-9" value="Youtube" style="strokeColor=inherit;fillColor=inherit;gradientColor=inherit;strokeWidth=1;shadow=0;dashed=0;align=center;html=1;shape=mxgraph.mockup.forms.rrect;rSize=0;fontSize=17;fontColor=#FFFFFF;" vertex="1" parent="TwwIinutiO0uDywIFcbO-4">
                    <mxGeometry x="332" width="83" height="30" as="geometry"/>
                </mxCell>
                <mxCell id="TwwIinutiO0uDywIFcbO-10" value="Email" style="strokeColor=inherit;fillColor=inherit;gradientColor=inherit;strokeWidth=1;shadow=0;dashed=0;align=center;html=1;shape=mxgraph.mockup.forms.rrect;rSize=0;fontSize=17;fontColor=#FFFFFF;" vertex="1" parent="TwwIinutiO0uDywIFcbO-4">
                    <mxGeometry x="415" width="83" height="30" as="geometry"/>
                </mxCell>
                <mxCell id="TwwIinutiO0uDywIFcbO-11" value="@Copyright" style="strokeWidth=1;shadow=0;dashed=0;align=center;html=1;shape=mxgraph.mockup.text.textBox;fontColor=#FFFFFF;align=left;fontSize=17;spacingLeft=4;spacingTop=-3;strokeColor=#666666;mainText=;fillColor=#4D4D4D;gradientColor=none;" vertex="1" parent="gWS6S3b0IVamxqoIi2r7-1">
                    <mxGeometry x="210" y="1040" width="350" height="30" as="geometry"/>
                </mxCell>
                <mxCell id="87XFDxautrjNuRnJ_1eo-0" value="Logo" style="rounded=0;whiteSpace=wrap;html=1;" vertex="1" parent="gWS6S3b0IVamxqoIi2r7-1">
                    <mxGeometry x="40" y="12" width="120" height="60" as="geometry"/>
                </mxCell>
                <mxCell id="87XFDxautrjNuRnJ_1eo-1" value="Layer 1" style="strokeWidth=1;shadow=0;dashed=0;align=center;html=1;shape=mxgraph.mockup.navigation.anchor;fontSize=17;fontStyle=1;fillColor=#4D4D4D;gradientColor=none;" vertex="1" parent="gWS6S3b0IVamxqoIi2r7-1">
                    <mxGeometry x="40" y="88" width="60" height="30" as="geometry"/>
                </mxCell>
                <mxCell id="87XFDxautrjNuRnJ_1eo-2" value="&amp;gt;" style="strokeWidth=1;shadow=0;dashed=0;align=center;html=1;shape=mxgraph.mockup.navigation.anchor;fontSize=24;fontStyle=1;fillColor=#4D4D4D;gradientColor=none;" vertex="1" parent="gWS6S3b0IVamxqoIi2r7-1">
                    <mxGeometry x="100" y="88" width="20" height="30" as="geometry"/>
                </mxCell>
                <mxCell id="87XFDxautrjNuRnJ_1eo-3" value="Layer 2" style="strokeWidth=1;shadow=0;dashed=0;align=center;html=1;shape=mxgraph.mockup.navigation.anchor;fontSize=17;fontStyle=1;fillColor=#4D4D4D;gradientColor=none;" vertex="1" parent="gWS6S3b0IVamxqoIi2r7-1">
                    <mxGeometry x="120" y="88" width="60" height="30" as="geometry"/>
                </mxCell>
                <mxCell id="87XFDxautrjNuRnJ_1eo-4" value="&amp;gt;" style="strokeWidth=1;shadow=0;dashed=0;align=center;html=1;shape=mxgraph.mockup.navigation.anchor;fontSize=24;fontStyle=1;fillColor=#4D4D4D;gradientColor=none;" vertex="1" parent="gWS6S3b0IVamxqoIi2r7-1">
                    <mxGeometry x="180" y="88" width="20" height="30" as="geometry"/>
                </mxCell>
                <mxCell id="87XFDxautrjNuRnJ_1eo-5" value="Layer 3" style="strokeWidth=1;shadow=0;dashed=0;align=center;html=1;shape=mxgraph.mockup.navigation.anchor;fontSize=17;fontStyle=1;fillColor=#4D4D4D;gradientColor=none;" vertex="1" parent="gWS6S3b0IVamxqoIi2r7-1">
                    <mxGeometry x="200" y="88" width="60" height="30" as="geometry"/>
                </mxCell>
                <mxCell id="87XFDxautrjNuRnJ_1eo-6" value="&amp;gt;" style="strokeWidth=1;shadow=0;dashed=0;align=center;html=1;shape=mxgraph.mockup.navigation.anchor;fontSize=24;fontStyle=1;fillColor=#4D4D4D;gradientColor=none;" vertex="1" parent="gWS6S3b0IVamxqoIi2r7-1">
                    <mxGeometry x="260" y="88" width="20" height="30" as="geometry"/>
                </mxCell>
                <mxCell id="87XFDxautrjNuRnJ_1eo-7" value="Layer 4" style="strokeWidth=1;shadow=0;dashed=0;align=center;html=1;shape=mxgraph.mockup.navigation.anchor;fontSize=17;fontStyle=1;fillColor=#4D4D4D;gradientColor=none;" vertex="1" parent="gWS6S3b0IVamxqoIi2r7-1">
                    <mxGeometry x="280" y="88" width="60" height="30" as="geometry"/>
                </mxCell>
                <mxCell id="87XFDxautrjNuRnJ_1eo-8" value="" style="strokeWidth=1;shadow=0;dashed=0;align=center;html=1;shape=mxgraph.mockup.forms.rrect;rSize=0;strokeColor=#999999;fontSize=14;fontColor=#FFFFFF;fillColor=#4D4D4D;gradientColor=none;" vertex="1" parent="gWS6S3b0IVamxqoIi2r7-1">
                    <mxGeometry x="170" y="22" width="370" height="30" as="geometry"/>
                </mxCell>
                <mxCell id="87XFDxautrjNuRnJ_1eo-9" value="Nhân Viên" style="strokeColor=inherit;fillColor=inherit;gradientColor=inherit;strokeWidth=1;shadow=0;dashed=0;align=center;html=1;shape=mxgraph.mockup.forms.rrect;rSize=0;fontSize=17;fontColor=#FFFFFF;" vertex="1" parent="87XFDxautrjNuRnJ_1eo-8">
                    <mxGeometry width="120" height="30" as="geometry"/>
                </mxCell>
                <mxCell id="87XFDxautrjNuRnJ_1eo-10" value="Phòng Ban" style="strokeColor=inherit;fillColor=inherit;gradientColor=inherit;strokeWidth=1;shadow=0;dashed=0;align=center;html=1;shape=mxgraph.mockup.forms.rrect;rSize=0;fontSize=17;fontColor=#FFFFFF;" vertex="1" parent="87XFDxautrjNuRnJ_1eo-8">
                    <mxGeometry x="120" width="130" height="30" as="geometry"/>
                </mxCell>
                <mxCell id="87XFDxautrjNuRnJ_1eo-11" value="Bảng Lương" style="strokeColor=inherit;fillColor=inherit;gradientColor=inherit;strokeWidth=1;shadow=0;dashed=0;align=center;html=1;shape=mxgraph.mockup.forms.rrect;rSize=0;fontSize=17;fontColor=#FFFFFF;" vertex="1" parent="87XFDxautrjNuRnJ_1eo-8">
                    <mxGeometry x="250" width="120" height="30" as="geometry"/>
                </mxCell>
                <mxCell id="tstbzH0lSVp1TYo9ic9x-0" value="Thông tin nhân viên 1" style="rounded=1;whiteSpace=wrap;html=1;fontSize=14;fontColor=#FFFFFF;strokeColor=#666666;fillColor=#4D4D4D;gradientColor=none;" vertex="1" parent="gWS6S3b0IVamxqoIi2r7-1">
                    <mxGeometry x="60" y="130" width="220" height="140" as="geometry"/>
                </mxCell>
                <mxCell id="tstbzH0lSVp1TYo9ic9x-1" value="Thông tin nhân viên 2" style="rounded=1;whiteSpace=wrap;html=1;fontSize=14;fontColor=#FFFFFF;strokeColor=#666666;fillColor=#4D4D4D;gradientColor=none;" vertex="1" parent="gWS6S3b0IVamxqoIi2r7-1">
                    <mxGeometry x="310" y="130" width="220" height="140" as="geometry"/>
                </mxCell>
                <mxCell id="tstbzH0lSVp1TYo9ic9x-2" value="Thông tin nhân viên 3" style="rounded=1;whiteSpace=wrap;html=1;fontSize=14;fontColor=#FFFFFF;strokeColor=#666666;fillColor=#4D4D4D;gradientColor=none;" vertex="1" parent="gWS6S3b0IVamxqoIi2r7-1">
                    <mxGeometry x="560" y="130" width="230" height="140" as="geometry"/>
                </mxCell>
                <mxCell id="tstbzH0lSVp1TYo9ic9x-16" value="Thông tin nhân viên 4" style="rounded=1;whiteSpace=wrap;html=1;fontSize=14;fontColor=#FFFFFF;strokeColor=#666666;fillColor=#4D4D4D;gradientColor=none;" vertex="1" parent="gWS6S3b0IVamxqoIi2r7-1">
                    <mxGeometry x="60" y="290" width="220" height="140" as="geometry"/>
                </mxCell>
                <mxCell id="tstbzH0lSVp1TYo9ic9x-17" value="Thông tin nhân viên 5" style="rounded=1;whiteSpace=wrap;html=1;fontSize=14;fontColor=#FFFFFF;strokeColor=#666666;fillColor=#4D4D4D;gradientColor=none;" vertex="1" parent="gWS6S3b0IVamxqoIi2r7-1">
                    <mxGeometry x="310" y="290" width="220" height="140" as="geometry"/>
                </mxCell>
                <mxCell id="tstbzH0lSVp1TYo9ic9x-18" value="Thông tin nhân viên 6" style="rounded=1;whiteSpace=wrap;html=1;fontSize=14;fontColor=#FFFFFF;strokeColor=#666666;fillColor=#4D4D4D;gradientColor=none;" vertex="1" parent="gWS6S3b0IVamxqoIi2r7-1">
                    <mxGeometry x="560" y="290" width="230" height="140" as="geometry"/>
                </mxCell>
                <mxCell id="tstbzH0lSVp1TYo9ic9x-19" value="Thông tin nhân viên 7" style="rounded=1;whiteSpace=wrap;html=1;fontSize=14;fontColor=#FFFFFF;strokeColor=#666666;fillColor=#4D4D4D;gradientColor=none;" vertex="1" parent="gWS6S3b0IVamxqoIi2r7-1">
                    <mxGeometry x="60" y="450" width="220" height="140" as="geometry"/>
                </mxCell>
                <mxCell id="tstbzH0lSVp1TYo9ic9x-20" value="Thông tin nhân viên 8" style="rounded=1;whiteSpace=wrap;html=1;fontSize=14;fontColor=#FFFFFF;strokeColor=#666666;fillColor=#4D4D4D;gradientColor=none;" vertex="1" parent="gWS6S3b0IVamxqoIi2r7-1">
                    <mxGeometry x="310" y="450" width="220" height="140" as="geometry"/>
                </mxCell>
                <mxCell id="tstbzH0lSVp1TYo9ic9x-21" value="Thông tin nhân viên 9" style="rounded=1;whiteSpace=wrap;html=1;fontSize=14;fontColor=#FFFFFF;strokeColor=#666666;fillColor=#4D4D4D;gradientColor=none;" vertex="1" parent="gWS6S3b0IVamxqoIi2r7-1">
                    <mxGeometry x="560" y="450" width="230" height="140" as="geometry"/>
                </mxCell>
                <mxCell id="tstbzH0lSVp1TYo9ic9x-22" value="Thông tin nhân viên 10" style="rounded=1;whiteSpace=wrap;html=1;fontSize=14;fontColor=#FFFFFF;strokeColor=#666666;fillColor=#4D4D4D;gradientColor=none;" vertex="1" parent="gWS6S3b0IVamxqoIi2r7-1">
                    <mxGeometry x="60" y="610" width="220" height="140" as="geometry"/>
                </mxCell>
                <mxCell id="tstbzH0lSVp1TYo9ic9x-23" value="Thông tin nhân viên 11" style="rounded=1;whiteSpace=wrap;html=1;fontSize=14;fontColor=#FFFFFF;strokeColor=#666666;fillColor=#4D4D4D;gradientColor=none;" vertex="1" parent="gWS6S3b0IVamxqoIi2r7-1">
                    <mxGeometry x="310" y="610" width="220" height="140" as="geometry"/>
                </mxCell>
                <mxCell id="tstbzH0lSVp1TYo9ic9x-24" value="Thông tin nhân viên 12" style="rounded=1;whiteSpace=wrap;html=1;fontSize=14;fontColor=#FFFFFF;strokeColor=#666666;fillColor=#4D4D4D;gradientColor=none;" vertex="1" parent="gWS6S3b0IVamxqoIi2r7-1">
                    <mxGeometry x="560" y="610" width="230" height="140" as="geometry"/>
                </mxCell>
                <mxCell id="tstbzH0lSVp1TYo9ic9x-25" value="Thông tin nhân viên 13" style="rounded=1;whiteSpace=wrap;html=1;fontSize=14;fontColor=#FFFFFF;strokeColor=#666666;fillColor=#4D4D4D;gradientColor=none;" vertex="1" parent="gWS6S3b0IVamxqoIi2r7-1">
                    <mxGeometry x="60" y="770" width="220" height="140" as="geometry"/>
                </mxCell>
                <mxCell id="tstbzH0lSVp1TYo9ic9x-26" value="Thông tin nhân viên 14" style="rounded=1;whiteSpace=wrap;html=1;fontSize=14;fontColor=#FFFFFF;strokeColor=#666666;fillColor=#4D4D4D;gradientColor=none;" vertex="1" parent="gWS6S3b0IVamxqoIi2r7-1">
                    <mxGeometry x="310" y="770" width="220" height="140" as="geometry"/>
                </mxCell>
                <mxCell id="tstbzH0lSVp1TYo9ic9x-27" value="Thông tin nhân viên 15" style="rounded=1;whiteSpace=wrap;html=1;fontSize=14;fontColor=#FFFFFF;strokeColor=#666666;fillColor=#4D4D4D;gradientColor=none;" vertex="1" parent="gWS6S3b0IVamxqoIi2r7-1">
                    <mxGeometry x="560" y="770" width="230" height="140" as="geometry"/>
                </mxCell>
            </root>
        </mxGraphModel>
    </diagram>
</mxfile>